<svg xmlns="http://www.w3.org/2000/svg" aria-hidden="true" viewBox="0 0 410 404" width="410" height="404"><path d="M399.641 59.5246L215.643 388.545C211.844 395.338 202.084 395.378 198.228 388.618L10.5817 59.5563C6.38087 52.1896 12.6802 43.2665 21.0281 44.7586L205.223 77.6824C206.398 77.8924 207.601 77.8904 208.776 77.6763L389.119 44.8058C397.439 43.2894 403.768 52.1434 399.641 59.5246Z" fill="url(#paint0_linear)"/><path d="M292.965 1.5744L156.801 28.2552C154.563 28.6937 152.906 30.5903 152.771 32.8664L144.395 174.33C144.198 177.662 147.258 180.248 150.51 179.498L188.42 170.749C191.967 169.931 195.172 173.055 194.443 176.622L183.18 231.775C182.421 235.491 185.907 238.657 189.532 237.539L212.947 230.315C216.577 229.194 220.065 232.371 219.297 236.09L201.398 322.75C200.278 328.173 207.486 331.126 210.492 326.472L212.5 323.363L323.454 102.014C325.312 98.3092 322.108 94.0836 318.036 94.8689L279.014 102.42C275.347 103.13 272.227 99.7168 273.262 96.1287L298.731 7.86051C299.767 4.26902 296.636 0.848056 292.965 1.5744Z" fill="url(#paint1_linear)"/><defs><linearGradient id="paint0_linear" x1="6.00017" y1="32.9999" x2="235" y2="344" gradientUnits="userSpaceOnUse"><stop stop-color="#41D1FF"/><stop offset="1" stop-color="#BD34FE"/></linearGradient><linearGradient id="paint1_linear" x1="194.651" y1="8.81818" x2="236.076" y2="292.989" gradientUnits="userSpaceOnUse"><stop stop-color="#FFEA83"/><stop offset="0.0833333" stop-color="#FFDD35"/><stop offset="1" stop-color="#FFA800"/></linearGradient></defs></svg>
